<?xml version="1.0" standalone="no"?>
<!DOCTYPE svg PUBLIC "-//W3C//DTD SVG 20010904//EN"
 "http://www.w3.org/TR/2001/REC-SVG-20010904/DTD/svg10.dtd">
<svg version="1.0" xmlns="http://www.w3.org/2000/svg"
 width="700.000000pt" height="700.000000pt" viewBox="0 0 700.000000 700.000000"
 preserveAspectRatio="xMidYMid meet">
<metadata>
Created by potrace 1.14, written by Peter Selinger 2001-2017
</metadata>
<g transform="translate(0.000000,700.000000) scale(0.100000,-0.100000)"
fill="#000000" stroke="none">
<path d="M1330 6993 c-407 -41 -720 -166 -928 -371 -132 -131 -224 -277 -290
-462 -47 -134 -66 -212 -98 -410 -11 -68 -14 -4372 -3 -4455 57 -431 167 -692
382 -906 192 -193 441 -306 802 -366 104 -17 227 -18 2280 -18 1194 0 2201 3
2238 8 607 68 978 322 1166 799 35 90 77 249 91 348 6 41 14 89 18 105 10 46
12 4350 2 4430 -5 39 -11 88 -14 110 -24 209 -121 481 -226 635 -118 173 -274
306 -465 395 -44 21 -87 41 -95 45 -21 10 -180 58 -210 64 -14 3 -50 10 -80
15 -203 40 -184 39 -2400 38 -1174 0 -2151 -2 -2170 -4z"/>
</g>
</svg>
