<svg width="133" height="32" viewBox="0 0 133 32" fill="none" xmlns="http://www.w3.org/2000/svg">
<path fill-rule="evenodd" clip-rule="evenodd" d="M28.3447 0.116863C28.3447 0.0531182 28.3978 0 28.4615 0C28.4934 0 28.5147 0.0106229 28.5465 0.0318712C28.5678 0.0531195 28.5784 0.0849907 28.5784 0.116863V0.127485C28.5784 2.30544 30.342 4.07968 32.5093 4.07968C32.5731 4.07968 32.6262 4.1328 32.6262 4.19655C32.6262 4.26029 32.5731 4.31341 32.5093 4.31341C30.3526 4.31341 28.589 6.08764 28.5784 8.25497C28.5784 8.31872 28.5253 8.37184 28.4615 8.37184C28.3978 8.37184 28.3447 8.31872 28.3447 8.25497C28.3447 6.07702 26.5811 4.30279 24.4137 4.30279C24.35 4.30279 24.2969 4.24966 24.2969 4.18592C24.2969 4.12217 24.35 4.06905 24.4137 4.06905C26.5811 4.06905 28.3447 2.29482 28.3447 0.116863ZM8.11686 2.90039H10.9004L19.0173 24.0531H16.3718L14.417 18.9747H4.60026L2.64542 24.0531H0L8.11686 2.90039ZM9.50863 6.16201L5.66268 16.1912H13.3546L9.50863 6.16201ZM23.299 2.91113H20.5898V24.0532H23.299V2.91113ZM36.4302 14.7252V21.2909H46.9694V24.0532H33.6679V2.91113H46.2045V5.67341H36.4302V12.101H45.1102V14.7252H36.4302ZM72.4028 8.43558C67.9831 8.43558 64.3922 11.9841 64.3603 16.3931V32H67.0694V22.0133C68.4187 23.4369 70.2779 24.3718 72.3497 24.5099H72.4028C76.8437 24.5099 80.4453 20.9084 80.4453 16.4675C80.4453 12.239 77.1837 8.77555 73.0402 8.45683C73.0296 8.45683 72.9925 8.45418 72.9554 8.45153L72.9552 8.45152C72.918 8.44886 72.8809 8.44621 72.8702 8.44621C72.7215 8.43558 72.5621 8.43558 72.4028 8.43558ZM77.7042 16.7012C77.7042 19.6228 75.335 21.992 72.4134 21.992C69.4918 21.992 67.1226 19.6228 67.1226 16.7012V16.4887V16.2762C67.1226 13.3546 69.4918 10.9854 72.4134 10.9854C75.335 10.9854 77.7042 13.3546 77.7042 16.2762V16.4887V16.7012ZM101.715 8.99866C100.844 8.62681 99.9093 8.4462 98.9531 8.43558H98.9106C97.8482 8.4462 96.8071 8.64806 95.8403 9.06241C94.8947 9.46613 94.0448 10.0292 93.3117 10.7623C92.5786 11.4847 92.0049 12.3347 91.6012 13.2802C91.1869 14.2576 90.9744 15.2988 90.9638 16.3718V16.3825V16.4037C90.9638 17.4874 91.1869 18.5498 91.6012 19.5378C92.0049 20.494 92.5893 21.3546 93.3223 22.0983C94.0554 22.842 94.916 23.4263 95.8721 23.8406C96.8602 24.2656 97.912 24.4887 98.9956 24.4993H99.0275H99.0381H99.0594H99.07H99.0806C100.281 24.4887 101.418 24.2125 102.491 23.7025C103.5 23.2138 104.371 22.5338 105.105 21.6733L103.097 20.069C102.597 20.6427 102.013 21.0996 101.344 21.4289C100.621 21.7795 99.8456 21.9708 99.0381 21.9708C98.4113 21.9708 97.8057 21.8539 97.2214 21.652C96.6583 21.4502 96.1377 21.1633 95.6597 20.7915C95.1922 20.4303 94.7885 19.9947 94.4591 19.4953C94.1298 18.996 93.8748 18.4435 93.7154 17.8698L93.6836 17.7742H106.061L106.071 15.5644C106.071 14.5976 105.88 13.6627 105.508 12.7915C105.147 11.9416 104.637 11.1766 103.978 10.5285C103.33 9.86984 102.565 9.35988 101.715 8.99866ZM103.373 15.2244H93.6859L93.7048 15.1394C93.8429 14.5657 94.0767 14.0133 94.3954 13.5139C94.7141 13.0252 95.0966 12.5896 95.5534 12.2284C96.0102 11.8672 96.5202 11.5803 97.0727 11.3785C97.6464 11.1766 98.2413 11.0704 98.8575 11.0704C99.9837 11.0704 101.067 11.4953 101.896 12.2497C102.725 13.004 103.245 14.0345 103.362 15.1394L103.373 15.2244ZM63.1713 8.87113H59.9628L55.6707 14.4382L51.3891 8.87113H48.1806L54.0345 16.4568L48.1806 24.0531H51.3891L55.6707 18.486L59.9628 24.0531H63.1713L57.3174 16.4568L63.1713 8.87113ZM116.006 15.6281C116.622 15.83 117.153 16.1062 117.61 16.4568C118.067 16.8074 118.428 17.243 118.672 17.7636C118.938 18.2841 119.066 18.9216 119.066 19.6865C119.066 20.5577 118.896 21.3014 118.545 21.907C118.194 22.5232 117.727 23.0119 117.153 23.3944C116.569 23.7662 115.921 24.0531 115.188 24.2231C114.487 24.3824 113.785 24.478 113.042 24.4887C110.641 24.4887 108.484 23.4156 107.039 21.737L109.089 20.1434C109.971 21.3545 111.416 22.1407 113.063 22.1407C113.424 22.1407 113.785 22.0982 114.157 22.0132C114.561 21.9282 114.922 21.7795 115.251 21.5883C115.581 21.397 115.846 21.1527 116.038 20.8552C116.24 20.5577 116.335 20.2071 116.335 19.7928C116.335 19.3784 116.24 19.0491 116.059 18.7835C115.878 18.5179 115.634 18.2948 115.326 18.1142C115.028 17.9229 114.678 17.7742 114.285 17.6679C113.892 17.5511 113.488 17.4555 113.074 17.3705C112.351 17.2217 111.661 17.0411 111.012 16.8499C110.364 16.6586 109.791 16.4037 109.302 16.0849C108.813 15.7768 108.42 15.3625 108.123 14.8632C107.825 14.3638 107.676 13.7264 107.676 12.9402C107.676 12.2071 107.836 11.5484 108.165 10.9853C108.495 10.4223 108.93 9.9548 109.472 9.58295C110.014 9.2111 110.619 8.92425 111.299 8.73302C111.979 8.53116 112.67 8.43554 113.424 8.43554C115.581 8.43554 117.483 9.49796 118.641 11.1447L116.622 12.5046C115.91 11.4953 114.742 10.8154 113.424 10.7729H113.222C112.872 10.7729 112.521 10.8154 112.16 10.9003C111.799 10.9853 111.48 11.1235 111.193 11.2934C110.906 11.4634 110.672 11.6865 110.492 11.9628C110.311 12.239 110.216 12.5471 110.216 12.8977C110.216 13.2164 110.322 13.5033 110.524 13.7264C110.726 13.9601 111.012 14.162 111.374 14.332C111.735 14.5019 112.149 14.6613 112.617 14.7888C113.084 14.9269 113.573 15.0332 114.072 15.1181C114.752 15.2563 115.4 15.4262 116.006 15.6281ZM131.835 17.7636C131.57 17.243 131.219 16.8074 130.752 16.4568C130.295 16.1062 129.764 15.83 129.148 15.6281C128.542 15.4262 127.894 15.2563 127.214 15.1181C126.715 15.0332 126.226 14.9269 125.758 14.7888C125.291 14.6613 124.877 14.5019 124.515 14.332C124.154 14.162 123.867 13.9601 123.665 13.7264C123.464 13.4926 123.357 13.2164 123.357 12.8977C123.357 12.5471 123.453 12.239 123.634 11.9628C123.814 11.6865 124.048 11.4634 124.335 11.2934C124.622 11.1235 124.94 10.9853 125.302 10.9003C125.663 10.8154 126.013 10.7729 126.364 10.7729H126.566C127.883 10.8154 129.052 11.4953 129.764 12.5046V12.494L131.782 11.1447L131.772 11.1341H131.782C130.624 9.49796 128.723 8.43554 126.566 8.43554H126.534C125.812 8.43554 125.121 8.53116 124.441 8.73302C123.761 8.92425 123.155 9.21111 122.614 9.58295C122.072 9.9548 121.636 10.4223 121.307 10.9853C120.978 11.5484 120.818 12.2071 120.818 12.9402C120.818 13.7264 120.967 14.3638 121.264 14.8632C121.562 15.3625 121.955 15.7768 122.444 16.0849C122.932 16.4037 123.506 16.6586 124.154 16.8499C124.813 17.0411 125.493 17.2217 126.215 17.3705C126.63 17.4555 127.033 17.5511 127.426 17.6679C127.819 17.7742 128.17 17.9229 128.468 18.1035C128.776 18.2841 129.02 18.5072 129.201 18.7729C129.381 19.0385 129.477 19.3678 129.477 19.7822C129.477 20.1965 129.381 20.5471 129.179 20.8446C128.988 21.142 128.723 21.3864 128.393 21.5776C128.064 21.7689 127.703 21.9176 127.299 22.0026C126.927 22.0876 126.566 22.1301 126.205 22.1301H126.183C124.568 22.1301 123.124 21.3439 122.242 20.1328L120.191 21.7264C121.636 23.405 123.793 24.478 126.194 24.478V24.4674C126.938 24.4568 127.639 24.3718 128.34 24.2124C129.073 24.0424 129.721 23.7556 130.306 23.3837C130.879 23.0013 131.347 22.5126 131.697 21.8964C132.048 21.2908 132.218 20.5471 132.218 19.6759C132.229 18.9322 132.101 18.2841 131.835 17.7636ZM82.411 8.82917H85.1202V10.4122C86.5545 9.15853 88.4137 8.39359 90.4429 8.39359V11.1027C87.5106 11.1027 85.1202 13.4932 85.1202 16.4361V24.0536H82.411V16.4255V16.0749V8.82917ZM29.8117 8.95609H27.1025V24.053H29.8117V8.95609Z" fill="#CC290A"/>
</svg>
